/* XPM */
static char * gown_die_xpm[] = {
"144 48 62 1",
" 	c None",
".	c #F300D9",
"+	c #BDBDBD",
"@	c #191919",
"#	c #4C4C4C",
"$	c #535353",
"%	c #292929",
"&	c #E3E3E3",
"*	c #A4A4A4",
"=	c #D4D4D4",
"-	c #EBEBEB",
";	c #7C7C7C",
">	c #949494",
",	c #3C3C3C",
"'	c #B4B4B4",
")	c #DBDBDB",
"!	c #5B5B5B",
"~	c #636363",
"{	c #CCCCCC",
"]	c #F4F4F4",
"^	c #FFFFFF",
"/	c #990789",
"(	c #9B9B9B",
"_	c #B9B9B9",
":	c #2D2D2D",
"<	c #171717",
"[	c #1D1D1D",
"}	c #000000",
"|	c #050505",
"1	c #0A0A0A",
"2	c #ADADAD",
"3	c #BBA34E",
"4	c #C4AB51",
"5	c #D5B958",
"6	c #E1C45D",
"7	c #EACC62",
"8	c #F4D465",
"9	c #242424",
"0	c #B19A49",
"a	c #CAB054",
"b	c #F9D969",
"c	c #FFE471",
"d	c #AA9446",
"e	c #FFFB8F",
"f	c #6C6C6C",
"g	c #838383",
"h	c #343434",
"i	c #746530",
"j	c #F9F9F9",
"k	c #8C8C8C",
"l	c #A28D43",
"m	c #D0B556",
"n	c #8B7939",
"o	c #121212",
"p	c #737373",
"q	c #444444",
"r	c #CF02B9",
"s	c #C4C4C4",
"t	c #0D0D0D",
"u	c #B59E4B",
"v	c #D805C1",
"w	c #98853F",
"                                                                                                                                                ",
"                                                                                                                                                ",
"                                                                                                                                                ",
"                                                                                                                                                ",
"                                                                                                                                                ",
"                                                                                                                                                ",
"                                                                                                                                                ",
"                                                                                                                                                ",
"                                                                                                                                                ",
"                                                                                                                                                ",
"                                                                                                                                                ",
"                    ........                                                                                                                    ",
"                  ............                                                                                                                  ",
"                 ..............                                                                                                                 ",
"                ................                                                                                                                ",
"                ................                                                                                                                ",
"               ..................                                                                                                               ",
"               ......+@#$%&......                                                                                                               ",
"               .....*=-;>+-&,....                                  .....                                                                        ",
"               .....')-!~{]^/....                               ..........                                                 ....                 ",
"               ....(_:-<[=,-../..                              ..............                                          ..........               ",
"               ....*}|))_{1)]....                             .................                                      ..............             ",
"          .........>2}+}22}{{....                            ....................                                  ........=====)...            ",
"        ............3456788*...../.......                    ............9:.......                                .......{=)))))))).            ",
"      .............03a678bbcb.................              ........[:@..,;,.......                             .........=))&&&&&&)).           ",
"    ...............d3a68bcecc...................            ......$f!g.f~h;!........                          ..........=))&&&&&-&&)=           ",
"   ................i345cebbc6.j2....                        .....#!k~k.>*<,,[.j^....                        ............=)&&&--]j-&&=.          ",
" .................''il4aa6mn--^^$....                       .....$~(:,.*ffoo%#j^^....///.                  .............))&&--]^^^-&))          ",
"              ...2'__+{in^^---j^^....                    .......#$1pf1.:};}|hq]^^^...........              ............r.-----]^^^-&))          ",
"             ....2'__+{&^^^]--]^^^...                  .........#$}}~}.}}f}1,9-^^^..............          .........<.....^^---]^^^]-&)          ",
"             ....''__s{)^^^]&&-]^^....               ............q}#67.}$$}t%&&]^^........               ...../@./@[%./...^]---j^^]--&          ",
"             ....''__s{=&]]&&&&---....             .............d34577bbbb}t&&&---....                   .....<%/#<,[<....^-&&&-jj-]j&          ",
"             ....2'__+s{=)))))&&&&....           ...............l3a678bceb}}))&&&&....                   ..../<~[f<;h>.....&&&&&---j^&          ",
"              ...2''_+s{{==)))))&&...            ...............n3a58cccee=)))))&&...                   ...../.~h,<#h,<.....)))&&&-^^+          ",
"              ....2'__+s{{====)))....                         ...l4a6a888{====)))....                 .......<..[t<}}<<.......))&&&^+.....      ",
"               ....2''_+ss{{{{==....                           ...ilaa43ss{{{{==....                .........//.<m6o<<..........))&]........... ",
"              00....222'_+ssss.....                             ....22'__+sss{..../                ...........03a567886.........................",
"             0000......2''_.......mm                         000 ......2''__......m              ............lu4m67bbc6..............           ",
"             000000.............mmmmm                       00000  .............mmmm            .........v...wu4m68cc8m...........mm            ",
"            00w0000000.......4mmmmmmm                       mmmmmm    ......mmmmmmmm                        0}03a55753... ..mmmmmmmm            ",
"            0dwd00n03d      amlmmmm04                      mmmmmmmm         mmmmmmmmm                      0000nw5d0w...    mmmmmmmmm           ",
"               d3u          3  dmc0 4                     mmmmmmmmm        mmmmmmmmmm                     0000000mm...     mmmmmmmmmm           ",
"                                m                         mmlmmmm0mm       n5wlmmmnu5                     mmlmmmm0mm       n5wlmmmnu5           ",
"                                                          3wldm8n038           06c                        3wldm8n038           06c              ",
"                                                             038                                             038                                ",
"                                                                                                                                                ",
"                                                                                                                                                ",
"                                                                                                                                                "};
