/* XPM */
static char * plasma_xpm[] = {
"72 24 47 1",
" 	c None",
".	c #8E00B4",
"+	c #A800D4",
"@	c #9800C0",
"#	c #8500A8",
"$	c #9200B8",
"%	c #8000A2",
"&	c #6F008C",
"*	c #CD0FFE",
"=	c #B500E4",
"-	c #8800AC",
";	c #C600FA",
">	c #730092",
",	c #D534FF",
"'	c #7D009E",
")	c #780098",
"!	c #770096",
"~	c #C900FE",
"{	c #E069FF",
"]	c #D120FF",
"^	c #DC55FE",
"/	c #D946FF",
"(	c #CE11FE",
"_	c #E78FFE",
":	c #E06BFF",
"<	c #D532FF",
"[	c #6C0088",
"}	c #E379FF",
"|	c #EFB4FF",
"1	c #D949FE",
"2	c #EBA1FF",
"3	c #E47DFF",
"4	c #ECA6FF",
"5	c #F2C3FF",
"6	c #DC59FF",
"7	c #F7D9FF",
"8	c #F7DBFF",
"9	c #F8DFFF",
"0	c #F9E3FF",
"a	c #F0B6FF",
"b	c #F8E1FF",
"c	c #FAE6FF",
"d	c #6A0086",
"e	c #FAEBFF",
"f	c #FBEDFF",
"g	c #FAE9FF",
"h	c #FBEFFF",
"        . +.@#$ + %                                  &#$                ",
"        @ *@=-+ ; #                                  >.@   .  >         ",
"        = ,+;.=',%.             )  .= '$%            !@+  =.  ~         ",
"        * {=].*@^#$ >           '  @/ %]$% '         '++$@(.  //        ",
"     >> ,@_;,$]@{#@ !         '%%%%+:]@<$# '        [%~+=}<.-.}^>> >    ",
"   # >>>{*|;1],]_.= '      ' #;=##@;2|3/$#'%       [!#]({4<~$$4}!!>.%   ",
"   -&!>-_]54{^1441;#%      %)-*;@]@*55_6<*@#'     [>-@/^55^<]]7_#'@.%   ",
"   .>'#.|,89550|5^*$#      %#.];*/=]77_:_:@--)    &%@=^_754a_}ba~+=.%   ",
"  !$#$$@8{8bb9c85^]@#d     #-$/]:6/|b9772:]$-)    >#@]{57b7057c5{/=.%>  ",
"  !@@@+,980ccccb5{]@-&     #@=6:_5|cb90b2:]@-)    '-+<_70cccccc5^^=+-!  ",
" >'@@]]4b0eefec083,@-&    )#@*6279bg0ecb53]+-)   ['.+/470gggcgc5}{<+-!  ",
" !#@;,3|0gfhhfg08_,@->d   )-+]:|9cceffg073<+-)   &'.=<_50gfhfggb4{<+-)  ",
" !-+]{|80ehhhfg08_,+.!d    -+]37bgefhfg073]+-)   &!-+]{4bgfhhfg05{]+-!  ",
" !-+]35bcefhhec9|3,+-!d    #+<_70gffhecb5:*@#)   [)#@~<}7cfhhfg07}]+#>  ",
" !#@]35bceeeecb5_^]+-!d    %@]350gfhfg072/=.%     >%.+~/4bgfffg07}]@#>  ",
" >#@*{5bccc00b5_1];@#>d    '$*629ceeg072:*@#)     &!#$@~^7cggccb5{~$%   ",
"  '.;^|8bb888|3,*;+$%>      -=<35bcc05_6]+-'       >'%-@]_7000b74/=-!   ",
"  !#@]358|_33^,=@@@-'&      %@;<_7bb53<*+.'         >!'-+/45755a}]@%>   ",
"   '.=133^]]]*+.---#!&      )-@;,_a|:]=@.%           [&'.~^}}}_}/=-!    ",
"   >%$;,,;@@@$-%''''>        '-$=<:6]+.-%              &'@~]]<<<~$%     ",
"    >#@=+.###%!&&&>>d         )%.=*;@-%)                >#$+++==@#>     ",
"     !#.-'>>>&d   dd            %.@$#)                   !##-.$$-!      ",
"      !'!&                       '#%                     [>!!'%%'       ",
"                                                           [[&>>        "};
