/* XPM */
static char * plasma_xpm[] = {
"48 48 57 1",
" 	c None",
".	c #870475",
"+	c #A0058B",
"@	c #D306B6",
"#	c #8D047A",
"$	c #A60590",
"%	c #91047D",
"&	c #B6059D",
"*	c #F841DF",
"=	c #F71CD9",
"-	c #93047F",
";	c #8B0478",
">	c #FA65E5",
",	c #F82DDC",
"'	c #950481",
")	c #990484",
"!	c #E607C7",
"~	c #AC0595",
"{	c #FB9CEE",
"]	c #FCB1F2",
"^	c #FA79E8",
"/	c #F948E0",
"(	c #850473",
"_	c #9C0587",
":	c #F70AD6",
"<	c #AE0596",
"[	c #FCB9F3",
"}	c #FDCCF6",
"|	c #FB8AEB",
"1	c #F95EE4",
"2	c #F837DD",
"3	c #F712D7",
"4	c #F724DA",
"5	c #F007D0",
"6	c #FDDEF9",
"7	c #FB94ED",
"8	c #9B0486",
"9	c #A80591",
"0	c #FA6FE7",
"a	c #F954E2",
"b	c #FEE1FA",
"c	c #FEDFF9",
"d	c #FDD6F8",
"e	c #FEE7FB",
"f	c #FEE3FA",
"g	c #FCA7F0",
"h	c #FEE9FB",
"i	c #FEE5FA",
"j	c #FEEBFB",
"k	c #FDC2F5",
"l	c #C906AE",
"m	c #BF06A6",
"n	c #FEEDFC",
"o	c #FA81EA",
"p	c #FEEFFC",
"q	c #A4058E",
"r	c #DC07BF",
"                                                ",
"                                                ",
"                                                ",
"                                                ",
"                ..    ++@@  ##$$%%              ",
"                ..    ++@@  ##$$%%              ",
"                ##    &&**  %%==$$--  ;;        ",
"                ##    &&**  %%==$$--  ;;        ",
"            ##--%%%%%%@@>>,,&&,,$$''  ##        ",
"            ##--%%%%%%@@>>,,&&,,$$''  ##        ",
"      ;;  ))!!@@''''~~!!{{]]^^//$$))##--        ",
"      ;;  ))!!@@''''~~!!{{]]^^//$$))##--        ",
"      %%((__::!!~~==<<::[[}}||112233~~''##      ",
"      %%((__::!!~~==<<::[[}}||112233~~''##      ",
"      --))++445533//@@==666677>>77>>~~88))..    ",
"      --))++445533//@@==666677>>77>>~~88))..    ",
"      ''8899**4400aa**]]bbccdddd{{00==$$88..    ",
"      ''8899**4400aa**]]bbccdddd{{00==$$88..    ",
"      ))<<@@aa0077}}[[eebbccffbbgg00==&&__..    ",
"      ))<<@@aa0077}}[[eebbccffbbgg00==&&__..    ",
"    (())&&::11gg66ccbbhhiijjeebbkk^^44ll__..    ",
"    (())&&::11gg66ccbbhhiijjeebbkk^^44ll__..    ",
"    ((88mm==00[[cceeeejjnnnnhhiiddoo,,ll__..    ",
"    ((88mm==00[[cceeeejjnnnnhhiiddoo,,ll__..    ",
"      88mm44ooddffhhjjnnppnnhhiiddoo44mm88((    ",
"      88mm44ooddffhhjjnnppnnhhiiddoo44mm88((    ",
"      ))mm,,||ddiihhnnppppjjeebbkk00::~~''((    ",
"      ))mm,,||ddiihhnnppppjjeebbkk00::~~''((    ",
"      --<<44^^kkffhhnnpppphhffdd{{//@@++%%      ",
"      --<<44^^kkffhhnnpppphhffdd{{//@@++%%      ",
"      ##99::11ggcceejjjjhhffdd{{>>33~~''..      ",
"      ##99::11ggcceejjjjhhffdd{{>>33~~''..      ",
"        __@@,,^^kkbbeeeeff}}||aa44mm__;;        ",
"        __@@,,^^kkbbeeeeff}}||aa44mm__;;        ",
"        --~~!!22||ddbbbb}}^^22::llqq##          ",
"        --~~!!22||ddbbbb}}^^22::llqq##          ",
"        ..88<<!!22||[[]]0044@@<<qq%%            ",
"        ..88<<!!22||[[]]0044@@<<qq%%            ",
"          ##88$$rr22>>11==mmqq88%%              ",
"          ##88$$rr22>>11==mmqq88%%              ",
"            ..--qq@@::55<<88%%..                ",
"            ..--qq@@::55<<88%%..                ",
"                %%qq~~$$''((                    ",
"                %%qq~~$$''((                    ",
"                  ##''%%                        ",
"                  ##''%%                        ",
"                                                ",
"                                                "};
